<?xml version="1.0" ?><svg style="enable-background:new 0 0 24 24;" version="1.1" viewBox="0 0 24 24" xml:space="preserve" xmlns="http://www.w3.org/2000/svg" xmlns:xlink="http://www.w3.org/1999/xlink"><style type="text/css">
	.st0{display:none;}
</style><g class="st0" id="grid"/><g id="icon"><path d="M8.041,12.659l-1.022,3.708c-0.048,0.173,0.001,0.359,0.128,0.486C7.242,16.949,7.369,17,7.5,17   c0.044,0,0.089-0.006,0.133-0.018l3.708-1.022c0.083-0.023,0.16-0.067,0.221-0.128L23.297,4.096c0.936-0.936,0.936-2.458,0-3.393   c-0.936-0.936-2.458-0.935-3.393,0L8.169,12.438C8.108,12.499,8.063,12.575,8.041,12.659z M8.969,13.052L20.611,1.41   c0.546-0.546,1.434-0.545,1.979,0s0.545,1.434,0,1.979L10.948,15.031l-2.732,0.753L8.969,13.052z"/><path d="M1.818,24h17.364C20.185,24,21,23.185,21,22.182V10.414c0-0.276-0.224-0.5-0.5-0.5s-0.5,0.224-0.5,0.5v11.768   C20,22.633,19.633,23,19.182,23H1.818C1.367,23,1,22.633,1,22.182V4.818C1,4.367,1.367,4,1.818,4h11.768c0.276,0,0.5-0.224,0.5-0.5   S13.862,3,13.586,3H1.818C0.815,3,0,3.815,0,4.818v17.364C0,23.185,0.815,24,1.818,24z"/></g></svg>